<svg width="200" height="100" viewBox="0 0 200 100" fill="none" xmlns="http://www.w3.org/2000/svg">
<path d="M29.3832 49.5779C30.2429 50.1365 31.1025 50.6953 31.9622 51.254C32.0381 51.3036 32.1084 51.3729 32.1907 51.4007C33.0447 51.6907 33.182 52.356 33.1713 53.2881C33.1231 57.4041 33.1504 61.5212 33.1497 65.6379V66.1917C32.737 65.9312 32.3901 65.7159 32.0464 65.495C31.2095 64.9582 30.3663 64.4332 29.5453 63.8673C29.3946 63.7631 29.2496 63.4897 29.2484 63.2931C29.2243 59.2596 29.2218 55.2256 29.2148 51.1917C29.2142 50.6736 29.2148 50.1553 29.2148 49.6371C29.2712 49.6174 29.3269 49.5976 29.3832 49.5779ZM33.1542 44.9426C31.814 44.0813 30.5936 43.3064 29.387 42.5059C29.2807 42.4353 29.2142 42.2 29.211 42.0392C29.1984 41.3977 29.1965 40.7535 29.2395 40.1145C29.2509 39.9437 29.4022 39.7254 29.5434 39.6335C32.2401 37.8783 34.9469 36.1427 37.6449 34.3896C37.9114 34.2166 38.119 34.2347 38.3722 34.3989C41.0594 36.1402 43.7536 37.8682 46.4345 39.6224C46.5966 39.7285 46.7542 40.0242 46.7548 40.2324C46.7719 44.6311 46.8093 61.9446 46.7605 63.3901C46.7555 63.5342 46.6877 63.7414 46.5896 63.8061C45.4191 64.5774 44.2373 65.3277 43.0573 66.081C43.0098 66.1112 42.9497 66.1162 42.8674 66.1416C42.8592 65.9709 42.8478 65.8257 42.8465 65.6804C42.8288 61.347 42.8212 46.222 42.8503 42.9933C42.8541 42.6018 42.7484 42.3686 42.4439 42.1762C41.0443 41.2924 39.6585 40.3807 38.2577 39.5003C38.1247 39.4166 37.8797 39.406 37.7506 39.488C36.3168 40.3993 34.8906 41.3259 33.4789 42.2785C33.3194 42.3861 33.182 42.6726 33.1687 42.8869C33.1276 43.5218 33.1542 44.162 33.1542 44.9426Z" fill="#39F2AE"/>
<path d="M28.8892 68.3965H34.808C36.2462 68.3965 37.3129 68.8394 38.008 69.7253C38.703 68.8394 39.769 68.3965 41.2073 68.3965H47.2198C48.0111 68.3965 48.5264 68.3026 48.7663 68.1146C48.9815 67.9536 49.0898 67.6717 49.0898 67.2691V66.1416H53V68.5979C53 69.8326 52.6164 70.8527 51.8492 71.658C51.0344 72.4901 49.8716 72.9062 48.3618 72.9062H41.7827C41.1351 72.9062 40.7281 72.9867 40.5603 73.1477C40.3926 73.3088 40.3084 73.7249 40.3084 74.396C40.3084 74.557 40.2425 74.698 40.1109 74.8188C39.9792 74.9396 39.8171 75 39.6253 75H36.3899C36.2222 75 36.0721 74.9396 35.9405 74.8188C35.8088 74.698 35.743 74.557 35.743 74.396C35.743 73.7249 35.6467 73.3088 35.4549 73.1477C35.2872 72.9867 34.8915 72.9062 34.2686 72.9062H27.6535C26.1437 72.9062 24.9929 72.4901 24.2022 71.658C23.4109 70.8527 23.0153 69.8326 23.0153 68.5979V66.1416H27.0192V67.2691C27.0192 67.6717 27.1274 67.9536 27.3433 68.1146C27.5826 68.3026 28.0979 68.3965 28.8892 68.3965ZM49.0246 65.1606C49.0277 65.1377 49.0303 65.1155 49.0303 65.0941C49.0588 63.9907 49.0322 62.6912 49.0537 61.5875C49.0562 61.4359 47.4705 60.0391 47.4705 60.0391C47.4705 60.0391 47.4578 56.6199 47.4585 55.6311C47.4585 55.5704 47.4585 55.4771 47.4585 55.3814C47.4585 55.306 47.4945 55.2364 47.5528 55.1988C47.611 55.1612 47.6832 55.1614 47.7414 55.1992C48.5295 55.7215 49.355 56.3651 50.0475 56.8119C50.8971 57.3597 51.7314 57.9359 52.586 58.4733C52.8487 58.6386 52.9557 58.8157 52.9551 59.1656C52.9532 61.1632 52.9582 63.1608 52.9709 65.158H49.0898C49.0676 65.158 49.0461 65.1588 49.0246 65.1606ZM23.0368 65.158C23.0457 63.9816 23.0507 62.8054 23.0533 61.629C23.0596 58.8618 23.0609 56.0945 23.0539 53.3273C23.0514 52.3752 23.014 51.4233 23.0001 50.471C22.9982 50.3166 23.0324 50.1615 23.0583 49.9328C24.1053 50.6096 25.0574 51.3139 26.0779 51.8553C26.8647 52.2727 26.9812 52.8726 26.9711 53.7508C26.9293 57.4749 26.959 61.1998 26.9445 64.9244C26.9445 65.0092 26.9496 65.0867 26.9603 65.158H23.0368ZM26.9654 34.841C26.9502 34.9147 26.9439 34.9968 26.9458 35.0896C26.9666 36.1604 26.9628 40.3798 26.947 41.4508C26.942 41.793 27.0622 41.9934 27.318 42.155C29.1867 43.3363 31.0579 44.5141 32.9159 45.7165C35.8417 47.6096 38.7575 49.5221 41.6789 51.4235C41.9441 51.596 42.0657 51.8216 42.0619 52.1815C42.0467 53.5327 42.0555 54.8842 42.0581 56.2356C42.0587 56.5983 42.0144 56.7803 41.6333 56.5303C39.9178 55.4048 38.189 54.3041 36.4634 53.197C34.5947 51.9982 32.7203 50.8108 30.8566 49.6028C28.603 48.1424 26.3577 46.6671 24.1104 45.1956C22.8108 44.3443 23.0317 44.7713 23.0444 43.0464C23.0571 41.3611 23.0482 36.5278 23.0349 34.842H26.9255C26.9388 34.842 26.9521 34.8417 26.9654 34.841ZM52.9842 34.842C52.9842 38.0914 52.9823 44.4887 52.9842 47.7383C52.9854 49.2693 53.0006 50.8004 52.9994 52.3314C52.9994 52.6379 52.9544 52.9442 52.9259 53.3027C51.6523 52.4748 50.4337 51.699 49.2373 50.8814C49.1062 50.7918 49.0524 50.4625 49.0518 50.2442C49.041 46.2558 49.041 39.1197 49.0505 35.1313C49.0505 35.0238 49.0442 34.9282 49.0265 34.842H52.9842ZM47.1261 31.6035H41.2073C39.769 31.6035 38.703 31.1606 38.008 30.2747C37.3129 31.1606 36.2462 31.6035 34.808 31.6035H28.7955C28.0042 31.6035 27.4889 31.6974 27.2496 31.8854C27.0337 32.0464 26.9255 32.3283 26.9255 32.7309V33.8584H23.0153V31.4021C23.0153 30.1674 23.3989 29.1473 24.1661 28.342C24.9808 27.5099 26.1437 27.0938 27.6535 27.0938H34.2326C34.8795 27.0938 35.2872 27.0133 35.4549 26.8523C35.6227 26.6912 35.7069 26.2751 35.7069 25.604C35.7069 25.443 35.7727 25.302 35.9044 25.1812C36.0361 25.0604 36.1981 25 36.3899 25H39.6253C39.7931 25 39.9431 25.0604 40.0748 25.1812C40.2065 25.302 40.2729 25.443 40.2729 25.604C40.2729 26.2751 40.3685 26.6912 40.5603 26.8523C40.7281 27.0133 41.1237 27.0938 41.7466 27.0938H48.3618C49.8716 27.0938 51.0224 27.5099 51.8131 28.342C52.6044 29.1473 53 30.1674 53 31.4021V33.8584H48.9961V32.7309C48.9961 32.3283 48.8878 32.0464 48.6726 31.8854C48.4327 31.6974 47.9174 31.6035 47.1261 31.6035Z" fill="#323941"/>
<path d="M64.172 59.06C62.644 59.06 61.46 58.696 60.62 57.968C59.78 57.232 59.36 56.144 59.36 54.704C59.36 53.272 59.78 52.192 60.62 51.464C61.46 50.728 62.672 50.36 64.256 50.36H66.416C68 50.36 69.212 50.728 70.052 51.464C70.892 52.192 71.312 53.272 71.312 54.704C71.312 56.144 70.892 57.232 70.052 57.968C69.212 58.696 68.02 59.06 66.476 59.06H64.172ZM64.388 51.92C63.5 51.92 62.808 52.08 62.312 52.4C61.816 52.72 61.504 53.228 61.376 53.924H69.296C69.168 53.228 68.856 52.72 68.36 52.4C67.864 52.08 67.172 51.92 66.284 51.92H64.388ZM64.424 57.5H66.284C67.18 57.5 67.872 57.34 68.36 57.02C68.856 56.7 69.168 56.188 69.296 55.484H61.376C61.504 56.188 61.816 56.7 62.312 57.02C62.808 57.34 63.512 57.5 64.424 57.5ZM78.508 59V50.42H87.676V51.98H80.428V54.356H86.74V55.916H80.428V59H78.508ZM94.6963 54.764V50.42H105.256V54.764H103.312V51.98H100.696V59H98.7763V51.98H96.6403V54.764H94.6963ZM113.353 59L112.393 50.42H114.313L115.021 56.684L117.409 54.848V50.42H119.329V54.86L121.693 56.684L122.413 50.42H124.333L123.373 59H121.765L118.369 56.252L114.961 59H113.353ZM130.569 59L134.433 50.42H137.397L141.261 59H139.173L138.357 57.188H133.473L132.657 59H130.569ZM134.169 55.628H137.661L135.993 51.92H135.837L134.169 55.628ZM148.223 59V50.42H155.411C156.299 50.42 156.987 50.644 157.475 51.092C157.971 51.54 158.219 52.22 158.219 53.132C158.219 53.908 158.039 54.516 157.679 54.956C157.319 55.396 156.807 55.672 156.143 55.784L158.123 59H155.939L154.103 55.844H150.143V59H148.223ZM155.183 51.98H150.143V54.272L155.183 54.284C155.535 54.284 155.803 54.196 155.987 54.02C156.179 53.844 156.275 53.548 156.275 53.132C156.275 52.708 156.179 52.412 155.987 52.244C155.803 52.068 155.535 51.98 155.183 51.98ZM165.66 59V50.42H175.068V51.98H167.58V53.876H174.372V55.436H167.58V57.44H175.068V59H165.66Z" fill="#323941"/>
</svg>
