<svg width="30" height="50" viewBox="0 0 30 50" fill="none" xmlns="http://www.w3.org/2000/svg">
<path d="M6.38321 24.5779C7.24286 25.1365 8.10252 25.6953 8.96217 26.254C9.03814 26.3036 9.1084 26.3729 9.1907 26.4007C10.0447 26.6907 10.182 27.356 10.1713 28.2881C10.1231 32.4041 10.1504 36.5212 10.1497 40.6379V41.1917C9.737 40.9312 9.3901 40.7159 9.04636 40.495C8.2095 39.9582 7.3663 39.4332 6.54526 38.8673C6.3946 38.7631 6.24964 38.4897 6.24837 38.2931C6.22432 34.2596 6.22179 30.2256 6.21482 26.1917C6.21419 25.6736 6.21482 25.1553 6.21482 24.6371C6.27116 24.6174 6.32687 24.5976 6.38321 24.5779ZM10.1542 19.9426C8.81404 19.0813 7.59356 18.3064 6.387 17.5059C6.28066 17.4353 6.21419 17.2 6.21103 17.0392C6.19837 16.3977 6.19647 15.7535 6.23951 15.1145C6.25091 14.9437 6.4022 14.7254 6.54337 14.6335C9.24008 12.8783 11.9469 11.1427 14.6449 9.38965C14.9114 9.21659 15.119 9.23467 15.3722 9.39886C18.0594 11.1402 20.7536 12.8682 23.4345 14.6224C23.5966 14.7285 23.7542 15.0242 23.7548 15.2324C23.7719 19.6311 23.8093 36.9446 23.7605 38.3901C23.7555 38.5342 23.6877 38.7414 23.5896 38.8061C22.4191 39.5774 21.2373 40.3277 20.0573 41.081C20.0098 41.1112 19.9497 41.1162 19.8674 41.1416C19.8592 40.9709 19.8478 40.8257 19.8465 40.6804C19.8288 36.347 19.8212 21.222 19.8503 17.9933C19.8541 17.6018 19.7484 17.3686 19.4439 17.1762C18.0443 16.2924 16.6585 15.3807 15.2577 14.5003C15.1247 14.4166 14.8797 14.406 14.7506 14.488C13.3168 15.3993 11.8906 16.3259 10.4789 17.2785C10.3194 17.3861 10.182 17.6726 10.1687 17.8869C10.1276 18.5218 10.1542 19.162 10.1542 19.9426Z" fill="white"/>
<path d="M5.88916 43.3965H11.808C13.2462 43.3965 14.3129 43.8394 15.008 44.7253C15.703 43.8394 16.769 43.3965 18.2073 43.3965H24.2198C25.0111 43.3965 25.5264 43.3026 25.7663 43.1146C25.9815 42.9536 26.0898 42.6717 26.0898 42.2691V41.1416H30V43.5979C30 44.8326 29.6164 45.8527 28.8492 46.658C28.0344 47.4901 26.8716 47.9062 25.3618 47.9062H18.7827C18.1351 47.9062 17.7281 47.9867 17.5603 48.1477C17.3926 48.3088 17.3084 48.7249 17.3084 49.396C17.3084 49.557 17.2425 49.698 17.1109 49.8188C16.9792 49.9396 16.8171 50 16.6253 50H13.3899C13.2222 50 13.0721 49.9396 12.9405 49.8188C12.8088 49.698 12.743 49.557 12.743 49.396C12.743 48.7249 12.6467 48.3088 12.4549 48.1477C12.2872 47.9867 11.8915 47.9062 11.2686 47.9062H4.65348C3.1437 47.9062 1.99286 47.4901 1.20221 46.658C0.410919 45.8527 0.0152756 44.8326 0.0152756 43.5979V41.1416H4.01919V42.2691C4.01919 42.6717 4.12744 42.9536 4.3433 43.1146C4.58259 43.3026 5.09787 43.3965 5.88916 43.3965ZM26.0246 40.1606C26.0277 40.1377 26.0303 40.1155 26.0303 40.0941C26.0588 38.9907 26.0322 37.6912 26.0537 36.5875C26.0562 36.4359 24.4705 35.0391 24.4705 35.0391C24.4705 35.0391 24.4578 31.6199 24.4585 30.6311C24.4585 30.5704 24.4585 30.4771 24.4585 30.3814C24.4585 30.306 24.4945 30.2364 24.5528 30.1988C24.611 30.1612 24.6832 30.1614 24.7414 30.1992C25.5295 30.7215 26.355 31.3651 27.0475 31.8119C27.8971 32.3597 28.7314 32.9359 29.586 33.4733C29.8487 33.6386 29.9557 33.8157 29.9551 34.1656C29.9532 36.1632 29.9582 38.1608 29.9709 40.158H26.0898C26.0676 40.158 26.0461 40.1588 26.0246 40.1606ZM0.0367965 40.158C0.0456589 38.9816 0.0507237 37.8054 0.0532559 36.629C0.0595862 33.8618 0.0608528 31.0945 0.0538895 28.3273C0.0513574 27.3752 0.0140024 26.4233 7.5786e-05 25.471C-0.0018233 25.3166 0.0323631 25.1615 0.0583173 24.9328C1.10535 25.6096 2.05743 26.3139 3.07787 26.8553C3.86473 27.2727 3.98121 27.8726 3.97108 28.7508C3.9293 32.4749 3.95905 36.1998 3.94449 39.9244C3.94449 40.0092 3.94955 40.0867 3.96031 40.158H0.0367965ZM3.96538 9.84101C3.95018 9.91474 3.94386 9.99677 3.94576 10.0896C3.96665 11.1604 3.96285 15.3798 3.94702 16.4508C3.94196 16.793 4.06223 16.9934 4.31798 17.155C6.18668 18.3363 8.05791 19.5141 9.91586 20.7165C12.8417 22.6096 15.7575 24.5221 18.6789 26.4235C18.9441 26.596 19.0657 26.8216 19.0619 27.1815C19.0467 28.5327 19.0555 29.8842 19.0581 31.2356C19.0587 31.5983 19.0144 31.7803 18.6333 31.5303C16.9178 30.4048 15.189 29.3041 13.4634 28.197C11.5947 26.9982 9.72026 25.8108 7.85662 24.6028C5.60303 23.1424 3.35767 21.6671 1.11041 20.1956C-0.189198 19.3443 0.0317319 19.7713 0.0443925 18.0464C0.0570531 16.3611 0.0481892 11.5278 0.0348955 9.842H3.9255C3.93879 9.842 3.95208 9.84172 3.96538 9.84101ZM29.9842 9.842C29.9842 13.0914 29.9823 19.4887 29.9842 22.7383C29.9854 24.2693 30.0006 25.8004 29.9994 27.3314C29.9994 27.6379 29.9544 27.9442 29.9259 28.3027C28.6523 27.4748 27.4337 26.699 26.2373 25.8814C26.1062 25.7918 26.0524 25.4625 26.0518 25.2442C26.041 21.2558 26.041 14.1197 26.0505 10.1313C26.0505 10.0238 26.0442 9.92821 26.0265 9.842H29.9842ZM24.1261 6.60349H18.2073C16.769 6.60349 15.703 6.1606 15.008 5.27474C14.3129 6.1606 13.2462 6.60349 11.808 6.60349H5.79547C5.00418 6.60349 4.48889 6.69743 4.24961 6.88538C4.03374 7.04638 3.9255 7.32827 3.9255 7.7309V8.85837H0.0152756V6.40214C0.0152756 5.1674 0.398887 4.14733 1.16612 3.34202C1.98083 2.5099 3.1437 2.0938 4.65348 2.0938H11.2326C11.8795 2.0938 12.2872 2.01326 12.4549 1.85226C12.6227 1.69118 12.7069 1.27508 12.7069 0.603972C12.7069 0.442965 12.7727 0.302021 12.9044 0.181213C13.0361 0.0604043 13.1981 0 13.3899 0H16.6253C16.7931 0 16.9431 0.0604043 17.0748 0.181213C17.2065 0.302021 17.2729 0.442965 17.2729 0.603972C17.2729 1.27508 17.3685 1.69118 17.5603 1.85226C17.7281 2.01326 18.1237 2.0938 18.7466 2.0938H25.3618C26.8716 2.0938 28.0224 2.5099 28.8131 3.34202C29.6044 4.14733 30 5.1674 30 6.40214V8.85837H25.9961V7.7309C25.9961 7.32827 25.8878 7.04638 25.6726 6.88538C25.4327 6.69743 24.9174 6.60349 24.1261 6.60349Z" fill="#39F2AE"/>
</svg>
